<?xml version="1.0" encoding="utf-8"?><!-- Uploaded to: SVG Repo, www.svgrepo.com, Generator: SVG Repo Mixer Tools -->
<svg fill="#000000" width="800px" height="800px" viewBox="0 0 24 24" id="list-2" data-name="Flat Color" xmlns="http://www.w3.org/2000/svg" class="icon flat-color"><path id="primary" d="M21,19H9a1,1,0,0,1,0-2H21a1,1,0,0,1,0,2Zm0-6H9a1,1,0,0,1,0-2H21a1,1,0,0,1,0,2Zm0-6H9A1,1,0,0,1,9,5H21a1,1,0,0,1,0,2Z" style="fill: rgb(0, 0, 0);"></path><path id="secondary" d="M5,6A1.5,1.5,0,1,1,3.5,4.5,1.5,1.5,0,0,1,5,6ZM3.5,10.5A1.5,1.5,0,1,0,5,12,1.5,1.5,0,0,0,3.5,10.5Zm0,6A1.5,1.5,0,1,0,5,18,1.5,1.5,0,0,0,3.5,16.5Z" style="fill: rgb(44, 169, 188);"></path></svg>