<?xml version="1.0" encoding="iso-8859-1"?>
<!-- Uploaded to: SVG Repo, www.svgrepo.com, Generator: SVG Repo Mixer Tools -->
<svg version="1.1" id="Layer_1" xmlns="http://www.w3.org/2000/svg" xmlns:xlink="http://www.w3.org/1999/xlink" 
	 viewBox="0 0 392.598 392.598" xml:space="preserve">
<path style="fill:#FFFFFF;" d="M359.855,21.786H32.743c-6.012,0-10.925,4.848-10.925,10.925v327.111
	c0,6.012,4.848,10.925,10.925,10.925h327.111c6.012,0,10.925-4.848,10.925-10.925V32.711
	C370.78,26.699,365.867,21.786,359.855,21.786z"/>
<rect x="43.604" y="43.055" style="fill:#FFC10D;" width="305.325" height="77.576"/>
<g>
	<path style="fill:#194F82;" d="M326.497,170.408H66.101c-6.012,0-10.925-4.848-10.925-10.925c0-6.012,4.848-10.925,10.925-10.925
		h260.331c6.012,0,10.925,4.848,10.925,10.925C337.422,165.495,332.509,170.408,326.497,170.408z"/>
	<path style="fill:#194F82;" d="M174.384,207.644H66.166c-6.012,0-10.925-4.848-10.925-10.925c0-6.012,4.848-10.925,10.925-10.925
		h108.154c6.012,0,10.925,4.848,10.925,10.925C185.244,202.667,180.396,207.644,174.384,207.644z"/>
	<path style="fill:#194F82;" d="M174.384,251.41H66.166c-6.012,0-10.925-4.848-10.925-10.925c0-6.077,4.848-10.925,10.925-10.925
		h108.154c6.012,0,10.925,4.848,10.925,10.925C185.244,246.562,180.396,251.41,174.384,251.41z"/>
	<path style="fill:#194F82;" d="M174.384,295.305H66.166c-6.012,0-10.925-4.848-10.925-10.925s4.848-10.925,10.925-10.925h108.154
		c6.012,0,10.925,4.848,10.925,10.925C185.244,290.392,180.396,295.305,174.384,295.305z"/>
	<path style="fill:#194F82;" d="M174.384,339.135H66.166c-6.012,0-10.925-4.848-10.925-10.925c0-6.012,4.848-10.925,10.925-10.925
		h108.154c6.012,0,10.925,4.848,10.925,10.925S180.396,339.135,174.384,339.135z"/>
	<path style="fill:#194F82;" d="M320.679,207.644H212.525c-6.012,0-10.925-4.848-10.925-10.925c0-6.012,4.848-10.925,10.925-10.925
		h108.154c6.012,0,10.925,4.848,10.925,10.925C331.604,202.667,326.756,207.644,320.679,207.644z"/>
	<path style="fill:#194F82;" d="M320.679,251.41H212.525c-6.012,0-10.925-4.848-10.925-10.925c0-6.077,4.848-10.925,10.925-10.925
		h108.154c6.012,0,10.925,4.848,10.925,10.925C331.604,246.562,326.756,251.41,320.679,251.41z"/>
	<path style="fill:#194F82;" d="M320.679,295.305H212.525c-6.012,0-10.925-4.848-10.925-10.925s4.848-10.925,10.925-10.925h108.154
		c6.012,0,10.925,4.848,10.925,10.925C331.604,290.392,326.756,295.305,320.679,295.305z"/>
	<path style="fill:#194F82;" d="M320.679,339.135H212.525c-6.012,0-10.925-4.848-10.925-10.925c0-6.012,4.848-10.925,10.925-10.925
		h108.154c6.012,0,10.925,4.848,10.925,10.925S326.756,339.135,320.679,339.135z"/>
	<polygon style="fill:#194F82;" points="103.596,91.41 71.984,49.972 58.537,49.972 58.537,114.36 72.889,114.36 72.889,74.02 
		103.596,114.36 117.947,114.36 117.947,49.972 103.596,49.972 	"/>
	<polygon style="fill:#194F82;" points="148.137,88.307 176.97,88.307 176.97,76.024 148.137,76.024 148.137,62.707 180.202,62.707 
		180.202,49.972 133.786,49.972 133.786,114.36 181.236,114.36 181.236,101.689 148.137,101.689 	"/>
	<polygon style="fill:#194F82;" points="251.96,87.014 240.582,49.972 225.584,49.972 214.141,87.014 201.406,49.972 
		185.891,49.972 208.323,114.36 218.99,114.36 233.018,69.624 247.176,114.36 257.778,114.36 280.275,49.972 264.76,49.972 	"/>
	<path style="fill:#194F82;" d="M314.731,75.701c-7.887-2.069-14.545-3.491-14.222-8.404c0.259-3.943,2.844-5.947,7.758-6.271
		c5.947,0,11.766,2.069,17.325,6.335l7.24-10.537c-6.659-5.43-14.675-8.275-24.113-8.469c-13.899,0.129-22.885,7.37-23.014,19.071
		c-0.065,11.636,7.37,17.648,21.657,20.428c6.335,1.422,11.96,3.168,11.895,8.016c-0.323,4.331-3.556,6.077-8.469,6.335
		c-5.883,0-12.283-3.038-19.265-9.115l-8.598,10.537c8.21,7.564,17.39,11.378,27.604,11.378c13.964-0.711,22.82-6.271,23.596-19.459
		C334.836,84.558,326.95,78.804,314.731,75.701z"/>
	<path style="fill:#194F82;" d="M359.855,0H32.743C14.707,0,0.032,14.675,0.032,32.711v327.111
		c0,18.101,14.675,32.776,32.711,32.776h327.111c18.036,0,32.711-14.675,32.711-32.711V32.711C392.566,14.675,377.891,0,359.855,0z
		 M370.78,359.822c0,6.012-4.848,10.925-10.925,10.925H32.743c-6.012,0-10.925-4.848-10.925-10.925V32.711
		c0-6.012,4.848-10.925,10.925-10.925h327.111c6.012,0,10.925,4.848,10.925,10.925V359.822L370.78,359.822z"/>
</g>
</svg>